<mxfile host="drawio-plugin" modified="2023-11-06T20:54:57.589Z" agent="5.0 (Windows NT 6.2; Win64; x64) AppleWebKit/537.36 (KHTML, like Gecko) Chrome/104.0.5112.102 Safari/537.36" etag="HTe6dxptA9kyXGwC3Os2" version="20.5.3" type="embed"><diagram name="1 oldal" id="PECIXuEUNroKyanK3r6n"><mxGraphModel dx="1560" dy="1031" grid="1" gridSize="10" guides="1" tooltips="1" connect="1" arrows="1" fold="1" page="1" pageScale="1" pageWidth="2339" pageHeight="3300" math="0" shadow="0"><root><mxCell id="0"/><mxCell id="1" parent="0"/><mxCell id="5" value="Ingress + Ingress controller (ingress-ngnix)" style="rounded=0;whiteSpace=wrap;html=1;direction=east;" parent="1" vertex="1"><mxGeometry x="770" y="970" width="120" height="60" as="geometry"/></mxCell><mxCell id="34" value="Cluster" style="text;html=1;strokeColor=none;fillColor=none;align=center;verticalAlign=middle;whiteSpace=wrap;rounded=0;fontSize=70;" parent="1" vertex="1"><mxGeometry x="982.5" y="160" width="380" height="100" as="geometry"/></mxCell><mxCell id="36" value="" style="shape=flexArrow;endArrow=classic;html=1;rounded=0;entryX=0.25;entryY=1;entryDx=0;entryDy=0;" parent="1" target="5" edge="1"><mxGeometry width="50" height="50" relative="1" as="geometry"><mxPoint x="490" y="1100" as="sourcePoint"/><mxPoint x="387.5" y="950" as="targetPoint"/></mxGeometry></mxCell><mxCell id="37" value="User input" style="text;html=1;strokeColor=none;fillColor=none;align=center;verticalAlign=middle;whiteSpace=wrap;rounded=0;" parent="1" vertex="1"><mxGeometry x="430" y="1060" width="60" height="30" as="geometry"/></mxCell><mxCell id="39" value="" style="endArrow=classic;startArrow=classic;html=1;rounded=0;fontSize=70;exitX=0.5;exitY=0;exitDx=0;exitDy=0;entryX=0.406;entryY=1.086;entryDx=0;entryDy=0;entryPerimeter=0;" parent="1" source="5" target="4" edge="1"><mxGeometry width="50" height="50" relative="1" as="geometry"><mxPoint x="970" y="700" as="sourcePoint"/><mxPoint x="650" y="700" as="targetPoint"/></mxGeometry></mxCell><mxCell id="3" value="Deployment" style="rounded=0;whiteSpace=wrap;html=1;" parent="1" vertex="1"><mxGeometry x="602.5" y="700" width="120" height="60" as="geometry"/></mxCell><mxCell id="4" value="Service&lt;br&gt;Expose: 80" style="rounded=0;whiteSpace=wrap;html=1;" parent="1" vertex="1"><mxGeometry x="602.5" y="790" width="120" height="60" as="geometry"/></mxCell><mxCell id="BNboJuSO8pRcp-xk_Tbs-6" value="Pod (replica set =1 )" style="swimlane;whiteSpace=wrap;html=1;" parent="1" vertex="1"><mxGeometry x="580" y="570" width="165" height="120" as="geometry"/></mxCell><mxCell id="2" value="GG UI Container" style="rounded=0;whiteSpace=wrap;html=1;" parent="BNboJuSO8pRcp-xk_Tbs-6" vertex="1"><mxGeometry x="15" y="40" width="120" height="60" as="geometry"/></mxCell><mxCell id="11" value="Pod (replica set =1 )" style="swimlane;whiteSpace=wrap;html=1;" parent="1" vertex="1"><mxGeometry x="770" y="570" width="165" height="120" as="geometry"/></mxCell><mxCell id="12" value="GG UI Cache Container" style="rounded=0;whiteSpace=wrap;html=1;" parent="11" vertex="1"><mxGeometry x="15" y="40" width="120" height="60" as="geometry"/></mxCell><mxCell id="103" style="edgeStyle=orthogonalEdgeStyle;rounded=0;orthogonalLoop=1;jettySize=auto;html=1;exitX=0.5;exitY=1;exitDx=0;exitDy=0;startArrow=classic;startFill=1;" edge="1" parent="1" source="14" target="5"><mxGeometry relative="1" as="geometry"/></mxCell><mxCell id="14" value="Service &lt;br&gt;Expose: 8081, 5701" style="rounded=0;whiteSpace=wrap;html=1;" parent="1" vertex="1"><mxGeometry x="782.5" y="810" width="120" height="60" as="geometry"/></mxCell><mxCell id="13" value="Deployment" style="rounded=0;whiteSpace=wrap;html=1;" parent="1" vertex="1"><mxGeometry x="782.5" y="710" width="120" height="60" as="geometry"/></mxCell><mxCell id="40" value="Pod (replica set =1 )" style="swimlane;whiteSpace=wrap;html=1;" parent="1" vertex="1"><mxGeometry x="960" y="560" width="165" height="120" as="geometry"/></mxCell><mxCell id="41" value="GG Loader Container" style="rounded=0;whiteSpace=wrap;html=1;" parent="40" vertex="1"><mxGeometry x="15" y="40" width="120" height="60" as="geometry"/></mxCell><mxCell id="42" value="Service&lt;br&gt;Expose: 5701" style="rounded=0;whiteSpace=wrap;html=1;" parent="1" vertex="1"><mxGeometry x="972.5" y="800" width="120" height="60" as="geometry"/></mxCell><mxCell id="43" value="Deployment" style="rounded=0;whiteSpace=wrap;html=1;" parent="1" vertex="1"><mxGeometry x="972.5" y="700" width="120" height="60" as="geometry"/></mxCell><mxCell id="44" value="Pod (replica set =1 )" style="swimlane;whiteSpace=wrap;html=1;" parent="1" vertex="1"><mxGeometry x="1170" y="570" width="165" height="120" as="geometry"/></mxCell><mxCell id="45" value="GG Poller Container" style="rounded=0;whiteSpace=wrap;html=1;" parent="44" vertex="1"><mxGeometry x="15" y="40" width="120" height="60" as="geometry"/></mxCell><mxCell id="47" value="Deployment" style="rounded=0;whiteSpace=wrap;html=1;" parent="1" vertex="1"><mxGeometry x="1182.5" y="710" width="120" height="60" as="geometry"/></mxCell><mxCell id="49" value="" style="endArrow=classic;startArrow=classic;html=1;rounded=0;fontSize=70;exitX=0.579;exitY=0.011;exitDx=0;exitDy=0;entryX=0.5;entryY=1;entryDx=0;entryDy=0;exitPerimeter=0;" parent="1" source="5" target="42" edge="1"><mxGeometry width="50" height="50" relative="1" as="geometry"><mxPoint x="850" y="1000" as="sourcePoint"/><mxPoint x="671.22" y="875.1599999999999" as="targetPoint"/></mxGeometry></mxCell><mxCell id="50" value="" style="shape=flexArrow;endArrow=classic;html=1;rounded=0;fontSize=70;entryX=0.75;entryY=1;entryDx=0;entryDy=0;" parent="1" target="42" edge="1"><mxGeometry width="50" height="50" relative="1" as="geometry"><mxPoint x="1170" y="1120" as="sourcePoint"/><mxPoint x="790" y="800" as="targetPoint"/></mxGeometry></mxCell><mxCell id="51" value="Region response" style="text;html=1;strokeColor=none;fillColor=none;align=center;verticalAlign=middle;whiteSpace=wrap;rounded=0;fontSize=12;" parent="1" vertex="1"><mxGeometry x="1180" y="1090" width="60" height="30" as="geometry"/></mxCell><mxCell id="53" value="" style="shape=flexArrow;endArrow=classic;html=1;rounded=0;fontSize=12;entryX=0.5;entryY=1;entryDx=0;entryDy=0;" parent="1" target="5" edge="1"><mxGeometry width="50" height="50" relative="1" as="geometry"><mxPoint x="830" y="1140" as="sourcePoint"/><mxPoint x="840" y="1040" as="targetPoint"/></mxGeometry></mxCell><mxCell id="22" value="Pod (replica set =1 )" style="swimlane;whiteSpace=wrap;html=1;" parent="1" vertex="1"><mxGeometry x="1114.5" y="250" width="165" height="120" as="geometry"/></mxCell><mxCell id="23" value="IBM MQ Queue manager container" style="rounded=0;whiteSpace=wrap;html=1;" parent="22" vertex="1"><mxGeometry x="15" y="40" width="120" height="60" as="geometry"/></mxCell><mxCell id="25" value="Service&lt;br&gt;Expose: 1414" style="rounded=0;whiteSpace=wrap;html=1;" parent="1" vertex="1"><mxGeometry x="1137" y="470" width="120" height="60" as="geometry"/></mxCell><mxCell id="24" value="Deployment" style="rounded=0;whiteSpace=wrap;html=1;" parent="1" vertex="1"><mxGeometry x="1137" y="390" width="120" height="60" as="geometry"/></mxCell><mxCell id="55" value="Pod" style="swimlane;whiteSpace=wrap;html=1;" parent="1" vertex="1"><mxGeometry x="1450" y="570" width="165" height="120" as="geometry"/></mxCell><mxCell id="56" value="Spark Driver container" style="rounded=0;whiteSpace=wrap;html=1;" parent="55" vertex="1"><mxGeometry x="15" y="40" width="120" height="60" as="geometry"/></mxCell><mxCell id="57" value="Service&lt;br&gt;Expose:4040&amp;nbsp;&amp;nbsp;" style="rounded=0;whiteSpace=wrap;html=1;" parent="1" vertex="1"><mxGeometry x="1560" y="720" width="120" height="60" as="geometry"/></mxCell><mxCell id="59" value="Pod (replica set =4 )" style="swimlane;whiteSpace=wrap;html=1;" parent="1" vertex="1"><mxGeometry x="1630" y="570" width="165" height="120" as="geometry"/></mxCell><mxCell id="60" value="Spark Worker container" style="rounded=0;whiteSpace=wrap;html=1;" parent="59" vertex="1"><mxGeometry x="15" y="40" width="120" height="60" as="geometry"/></mxCell><mxCell id="68" value="Ingress" style="rounded=0;whiteSpace=wrap;html=1;direction=east;" vertex="1" parent="1"><mxGeometry x="1560" y="830" width="120" height="60" as="geometry"/></mxCell><mxCell id="69" value="" style="endArrow=classic;startArrow=classic;html=1;rounded=0;entryX=0.5;entryY=1;entryDx=0;entryDy=0;" edge="1" parent="1" source="68" target="57"><mxGeometry width="50" height="50" relative="1" as="geometry"><mxPoint x="1240" y="940" as="sourcePoint"/><mxPoint x="1290" y="890" as="targetPoint"/></mxGeometry></mxCell><mxCell id="70" value="" style="shape=flexArrow;endArrow=classic;html=1;rounded=0;entryX=0.5;entryY=1;entryDx=0;entryDy=0;" edge="1" parent="1" target="68"><mxGeometry width="50" height="50" relative="1" as="geometry"><mxPoint x="1620" y="1000" as="sourcePoint"/><mxPoint x="1290" y="890" as="targetPoint"/></mxGeometry></mxCell><mxCell id="71" value="&lt;div style=&quot;text-align: left;&quot;&gt;&lt;span style=&quot;background-color: initial;&quot;&gt;/streaming&lt;/span&gt;&lt;/div&gt;&lt;div style=&quot;text-align: left;&quot;&gt;&lt;span style=&quot;background-color: initial;&quot;&gt;/jobs&lt;/span&gt;&lt;/div&gt;&lt;div style=&quot;text-align: left;&quot;&gt;&lt;span style=&quot;background-color: initial;&quot;&gt;/executors&lt;/span&gt;&lt;/div&gt;&lt;div style=&quot;text-align: left;&quot;&gt;&lt;span style=&quot;background-color: initial;&quot;&gt;/api&lt;/span&gt;&lt;/div&gt;&lt;div style=&quot;text-align: left;&quot;&gt;&lt;span style=&quot;background-color: initial;&quot;&gt;/stages&lt;/span&gt;&lt;/div&gt;&lt;div style=&quot;text-align: left;&quot;&gt;&lt;span style=&quot;background-color: initial;&quot;&gt;/static&lt;/span&gt;&lt;/div&gt;&lt;div style=&quot;text-align: left;&quot;&gt;&lt;span style=&quot;background-color: initial;&quot;&gt;/storage&lt;/span&gt;&lt;/div&gt;&lt;div style=&quot;text-align: left;&quot;&gt;&lt;span style=&quot;background-color: initial;&quot;&gt;/environment&lt;/span&gt;&lt;/div&gt;" style="text;html=1;align=center;verticalAlign=middle;resizable=0;points=[];autosize=1;strokeColor=none;fillColor=none;" vertex="1" parent="1"><mxGeometry x="1630" y="900" width="90" height="130" as="geometry"/></mxCell><mxCell id="97" style="edgeStyle=orthogonalEdgeStyle;rounded=0;orthogonalLoop=1;jettySize=auto;html=1;exitX=0.5;exitY=1;exitDx=0;exitDy=0;entryX=0.5;entryY=0;entryDx=0;entryDy=0;" edge="1" parent="1" source="89" target="98"><mxGeometry relative="1" as="geometry"><mxPoint x="1665" y="310" as="targetPoint"/></mxGeometry></mxCell><mxCell id="89" value="Amazon&lt;br&gt;EFS" style="shape=datastore;whiteSpace=wrap;html=1;" vertex="1" parent="1"><mxGeometry x="1615" y="170" width="60" height="60" as="geometry"/></mxCell><mxCell id="91" value="Checkpoint&lt;br&gt;&amp;nbsp;storage" style="text;html=1;align=center;verticalAlign=middle;resizable=0;points=[];autosize=1;strokeColor=none;fillColor=none;" vertex="1" parent="1"><mxGeometry x="1600" y="500" width="80" height="40" as="geometry"/></mxCell><mxCell id="100" style="edgeStyle=orthogonalEdgeStyle;rounded=0;orthogonalLoop=1;jettySize=auto;html=1;exitX=0.5;exitY=1;exitDx=0;exitDy=0;entryX=0.5;entryY=0;entryDx=0;entryDy=0;" edge="1" parent="1" source="98" target="99"><mxGeometry relative="1" as="geometry"/></mxCell><mxCell id="98" value="PersistentVolume" style="rounded=0;whiteSpace=wrap;html=1;" vertex="1" parent="1"><mxGeometry x="1585" y="290" width="120" height="60" as="geometry"/></mxCell><mxCell id="101" style="edgeStyle=orthogonalEdgeStyle;rounded=0;orthogonalLoop=1;jettySize=auto;html=1;exitX=0.5;exitY=1;exitDx=0;exitDy=0;" edge="1" parent="1" source="99" target="59"><mxGeometry relative="1" as="geometry"/></mxCell><mxCell id="102" style="edgeStyle=orthogonalEdgeStyle;rounded=0;orthogonalLoop=1;jettySize=auto;html=1;exitX=0.5;exitY=1;exitDx=0;exitDy=0;entryX=0.68;entryY=0.002;entryDx=0;entryDy=0;entryPerimeter=0;" edge="1" parent="1" source="99" target="55"><mxGeometry relative="1" as="geometry"/></mxCell><mxCell id="99" value="PersistentVolumeClaim" style="rounded=0;whiteSpace=wrap;html=1;" vertex="1" parent="1"><mxGeometry x="1575" y="370" width="140" height="60" as="geometry"/></mxCell><mxCell id="104" value="Downloaded geocache file" style="text;html=1;strokeColor=none;fillColor=none;align=center;verticalAlign=middle;whiteSpace=wrap;rounded=0;fontSize=12;" vertex="1" parent="1"><mxGeometry x="760" y="1110" width="60" height="30" as="geometry"/></mxCell></root></mxGraphModel></diagram></mxfile>